# xmcd
#
# Track frame offsets: 
#        150
#        12562
#        29613
#        44432
#        57570
#        75193
#        89654
#        107131
#        128683
#        146491
#        159530
#        178661
#        189758
#        198604
#
# Disc length: 2819 seconds
#
# Revision: 0
# Processed by: cddbd v1.5.2PL0 Copyright (c) Steve Scherf et al.
# Submitted via: ExactAudioCopy v0.95b4
#
DISCID=bf0b010e
DTITLE=Telecaster Combo - 20 Years After
DYEAR=2007
DGENRE=Blues
TTITLE0=Be Careful
TTITLE1=Rough Ridin' Pony
TTITLE2=You're So Fine
TTITLE3=Walkin' By Myself
TTITLE4=Standin' Around Cryin'
TTITLE5=It Ain't Right
TTITLE6=Clouds in My Heart
TTITLE7=Hate to See You Go
TTITLE8=Honey Bee
TTITLE9=I've Been Abused
TTITLE10=Moonshine Whiskey Blues
TTITLE11=Too Late
TTITLE12=Telecaster Shuffle (aka The Honeydripper)
TTITLE13=I Got to GO
EXTD=
EXTT0=
EXTT1=
EXTT2=
EXTT3=
EXTT4=
EXTT5=
EXTT6=
EXTT7=
EXTT8=
EXTT9=
EXTT10=
EXTT11=
EXTT12=
EXTT13=
PLAYORDER=
